<?xml version="1.0"?>
<svg xmlns="http://www.w3.org/2000/svg" viewBox="0 0 512 512" width="512" height="512"><g id="Solid"><path d="M475.425,152.111a30.638,30.638,0,0,0-4.4-37.767L406.142,49.456a59.6,59.6,0,0,0-84.284,0l-272.4,272.4a59.6,59.6,0,0,0,0,84.284l64.888,64.888a30.638,30.638,0,0,0,37.767,4.4L58.343,381.657l11.314-11.314L164,464.686,176.686,452,82.343,357.657l11.314-11.314L188,440.686,200.686,428l-94.343-94.343,11.314-11.314L212,416.686,224.686,404l-94.343-94.343,11.314-11.314L236,392.686,248.686,380l-94.343-94.343,11.314-11.314L260,368.686,272.686,356l-94.343-94.343,11.314-11.314L284,344.686,296.686,332l-94.343-94.343,11.314-11.314L308,320.686,320.686,308l-94.343-94.343,11.314-11.314L332,296.686,344.686,284l-94.343-94.343,11.314-11.314L356,272.686,368.686,260l-94.343-94.343,11.314-11.314L380,248.686,392.686,236l-94.343-94.343,11.314-11.314L404,224.686,416.686,212l-94.343-94.343,11.314-11.314L428,200.686,440.686,188,346.343,93.657l11.314-11.314L452,176.686,464.686,164,370.343,69.657l11.314-11.314Z"/></g></svg>
