<?xml version="1.0" encoding="UTF-8" standalone="no"?>
  <!DOCTYPE svg PUBLIC "-//W3C//DTD SVG 1.1//EN" "http://www.w3.org/Graphics/SVG/1.1/DTD/svg11.dtd">
  <svg width="100%" height="100%" viewBox="0 0 9934 14044" version="1.1" xmlns="http://www.w3.org/2000/svg" xmlns:xlink="http://www.w3.org/1999/xlink" xml:space="preserve" xmlns:serif="http://www.serif.com/" style="fill-rule:evenodd;clip-rule:evenodd;stroke-linejoin:round;stroke-miterlimit:2;">

    <!-- <g transform="matrix(1.62854,0,0,1.62854,-2190.53,-1423.25)">
        <path d="M3597.36,2037.99C3603.23,2038.74 3678.91,2033.35 3677.6,2043.66C3798.14,2172.27 3864.07,2303.52 3900.07,2410.67L3899.13,2396.23C3899.13,2396.23 3913.82,2503.96 4075.41,2641.06C4236.99,2778.17 4315.34,3047.48 4315.34,3047.48L3987.26,2719.41L3918.71,2694.93L3915.45,2645.16C3875.47,2651.14 3805.13,2669.86 3795.09,2653.77C3820.28,2372.31 3606.83,2047.06 3597.36,2037.99C3597.03,2037.95 3596.92,2037.89 3597.05,2037.8C3597.1,2037.78 3597.2,2037.84 3597.36,2037.99Z" style="fill:rgb(214,158,88);"/>
    </g> -->
      <g transform="
          matrix(1,0,0,1,0,0)
          rotate(0, 4800, 6300)
        ">

        <!-- 3.2 -->
        <animateTransform
         attributeName="transform"
         begin="0s;left_6.end"
         dur="0.8s"
         type="rotate"
         from="0 4800 6300"
         to="-35 4800 6300"
         repeatCount="1"
         id="left_1"
  			/>

        <animateTransform
         attributeName="transform"
         begin="0.8s;left_1.end"
         dur="0.8s"
         type="rotate"
         from="-35 4800 6300"
         to="-35 4800 6300"
         repeatCount="1"
         id="left_2"
  			/>

        <animateTransform
         attributeName="transform"
         begin="1.6s;left_2.end"
         dur="0.5s"
         type="rotate"
         from="-35 4800 6300"
         to="0 4800 6300"
         repeatCount="1"
         id="left_3"
  			/>

        <animateTransform
         attributeName="transform"
         begin="2.1s;left_3.end"
         dur="0.25s"
         type="rotate"
         from="0 4800 6300"
         to="-30 4800 6300"
         repeatCount="1"
         id="left_4"
  			/>

        <animateTransform
         attributeName="transform"
         begin="2.35s;left_4.end"
         dur="0.25s"
         type="rotate"
         from="-30 4800 6300"
         to="0 4800 6300"
         repeatCount="1"
         id="left_5"
  			/>

        <animateTransform
         attributeName="transform"
         begin="2.6s;left_5.end"
         dur="0.6s"
         type="rotate"
         from="0 4800 6300"
         to="0 4800 6300"
         repeatCount="1"
         id="left_6"
  			/>

        <g transform="matrix(1.51854,0,0,1.52854,-2190.53,-1423.25)">
            <path d="M3597.36,2037.99C3603.23,2038.74 3678.91,2033.35 3677.6,2043.66C3798.14,2172.27 3864.07,2303.52 3900.07,2410.67L3899.13,2396.23C3899.13,2396.23 3913.82,2503.96 4075.41,2641.06C4236.99,2778.17 4315.34,3047.48 4315.34,3047.48L3987.26,2719.41L3918.71,2694.93L3915.45,2645.16C3875.47,2651.14 3805.13,2669.86 3795.09,2653.77C3820.28,2372.31 3606.83,2047.06 3597.36,2037.99C3597.03,2037.95 3596.92,2037.89 3597.05,2037.8C3597.1,2037.78 3597.2,2037.84 3597.36,2037.99Z" style="fill:rgb(214,158,88);"/>
        </g>

          <path d="M4775.66,6764.72C4711.96,6298.3 3953.6,5435.46 3953.6,5435.46L3950.4,5440.66C3687.52,5165.31 3398.43,4995.13 3538.18,4855.38C3635.49,4758.07 3649.62,4621.84 3633.9,4497.73C3590.25,4309.46 3484.02,4221.27 3440.13,4191.94C3179.54,4068.32 2994.65,3759.02 2994.65,3397.41C2994.65,2927.16 3307.31,2545.39 3692.42,2545.39C4077.53,2545.39 4390.19,2927.16 4390.19,3397.41C4390.19,3720.13 4242.93,4001.19 4026.09,4145.74C3932.74,4224.62 3854.01,4305 3854.01,4522.77C3854.01,4904.5 4259.2,5447.35 4549.58,5787.37L4818.41,6077.23L4817.7,6077.53L4817.95,6077.8L4818.41,6077.81L4818.41,6078.28L5281.04,6567.65C5261.6,6984.14 5214.64,7707.95 5103.23,8913.01C4943.48,10641.1 4839.3,10772.3 4797.1,10729.4C4792.2,10734.4 4786.47,10737 4779.91,10735.1L4779.91,6823.66L4779.91,6822.49L4779.91,6822.21L4779.9,6821.04L4779.9,6820.99L4779.89,6819.86L4779.89,6819.58L4779.87,6818.4L4779.87,6818.32L4779.85,6817.21L4779.85,6816.94L4779.83,6815.76L4779.82,6815.66L4779.8,6814.55L4779.79,6814.29L4779.76,6813.1L4779.76,6812.99L4779.72,6811.87L4779.72,6811.64L4779.68,6810.42L4779.67,6810.33L4779.63,6809.16L4779.62,6808.98L4779.57,6807.73L4779.57,6807.67L4779.52,6806.44L4779.51,6806.31L4779.45,6805.02L4779.45,6805L4779.39,6803.69L4779.38,6803.64C4778.85,6793.3 4777.91,6782.73 4776.59,6771.87L4776.57,6771.77L4776.41,6770.41L4776.25,6769.19L4776.2,6768.8L4776.08,6767.83L4776.05,6767.66L4775.98,6767.09L4775.91,6766.56L4775.81,6765.78L4775.66,6764.72ZM3692.16,2784.73C3979.14,2784.73 4212.14,3069.23 4212.14,3419.66C4212.14,3770.09 3979.14,4054.59 3692.16,4054.59C3405.17,4054.59 3172.17,3770.09 3172.17,3419.66C3172.17,3069.23 3405.17,2784.73 3692.16,2784.73Z" style="fill:rgb(29,29,38);"/>


      </g>
      <g transform="
          matrix(-1,0,0,1,9600,0)
          rotate(0, 4800, 6300)
        ">

        <animateTransform
         attributeName="transform"
         begin="0s;right_6.end"
         dur="0.8s"
         type="rotate"
         from="0 4800 6300"
         to="-35 4800 6300"
         repeatCount="1"
         additive="sum"
         id="right_1"
  			/>

        <animateTransform
         attributeName="transform"
         begin="0.8s;right_1.end"
         dur="0.8s"
         type="rotate"
         from="-35 4800 6300"
         to="-35 4800 6300"
         repeatCount="1"
         additive="sum"
         id="right_2"
  			/>

        <animateTransform
         attributeName="transform"
         begin="1.6s;right_2.end"
         dur="0.5s"
         type="rotate"
         from="-35 4800 6300"
         to="0 4800 6300"
         repeatCount="1"
         additive="sum"
         id="right_3"
  			/>

        <animateTransform
         attributeName="transform"
         begin="2.1s;right_3.end"
         dur="0.25s"
         type="rotate"
         from="0 4800 6300"
         to="-30 4800 6300"
         repeatCount="1"
         additive="sum"
         id="right_4"
  			/>

        <animateTransform
         attributeName="transform"
         begin="2.35s;right_4.end"
         dur="0.25s"
         type="rotate"
         from="-30 4800 6300"
         to="0 4800 6300"
         repeatCount="1"
         additive="sum"
         id="right_5"
  			/>

        <animateTransform
         attributeName="transform"
         begin="2.6s;right_5.end"
         dur="0.6s"
         type="rotate"
         from="0 4800 6300"
         to="0 4800 6300"
         repeatCount="1"
         additive="sum"
         id="right_6"
  			/>


          <path d="M4775.66,6764.72C4711.96,6298.3 3953.6,5435.46 3953.6,5435.46L3950.4,5440.66C3687.52,5165.31 3398.43,4995.13 3538.18,4855.38C3635.49,4758.07 3649.62,4621.84 3633.9,4497.73C3590.25,4309.46 3484.02,4221.27 3440.13,4191.94C3179.54,4068.32 2994.65,3759.02 2994.65,3397.41C2994.65,2927.16 3307.31,2545.39 3692.42,2545.39C4077.53,2545.39 4390.19,2927.16 4390.19,3397.41C4390.19,3720.13 4242.93,4001.19 4026.09,4145.74C3932.74,4224.62 3854.01,4305 3854.01,4522.77C3854.01,4904.5 4259.2,5447.35 4549.58,5787.37L4818.41,6077.23L4817.7,6077.53L4817.95,6077.8L4818.41,6077.81L4818.41,6078.28L5281.04,6567.65C5261.6,6984.14 5214.64,7707.95 5103.23,8913.01C4943.48,10641.1 4839.3,10772.3 4797.1,10729.4C4792.2,10734.4 4786.47,10737 4779.91,10735.1L4779.91,6823.66L4779.91,6822.49L4779.91,6822.21L4779.9,6821.04L4779.9,6820.99L4779.89,6819.86L4779.89,6819.58L4779.87,6818.4L4779.87,6818.32L4779.85,6817.21L4779.85,6816.94L4779.83,6815.76L4779.82,6815.66L4779.8,6814.55L4779.79,6814.29L4779.76,6813.1L4779.76,6812.99L4779.72,6811.87L4779.72,6811.64L4779.68,6810.42L4779.67,6810.33L4779.63,6809.16L4779.62,6808.98L4779.57,6807.73L4779.57,6807.67L4779.52,6806.44L4779.51,6806.31L4779.45,6805.02L4779.45,6805L4779.39,6803.69L4779.38,6803.64C4778.85,6793.3 4777.91,6782.73 4776.59,6771.87L4776.57,6771.77L4776.41,6770.41L4776.25,6769.19L4776.2,6768.8L4776.08,6767.83L4776.05,6767.66L4775.98,6767.09L4775.91,6766.56L4775.81,6765.78L4775.66,6764.72ZM3692.16,2784.73C3979.14,2784.73 4212.14,3069.23 4212.14,3419.66C4212.14,3770.09 3979.14,4054.59 3692.16,4054.59C3405.17,4054.59 3172.17,3770.09 3172.17,3419.66C3172.17,3069.23 3405.17,2784.73 3692.16,2784.73Z" style="fill:rgb(29,29,38);"/>
      </g>


      <!-- <rect width="10" height="10">
        <animate attributeName="rx" values="0;5;0" dur="10s" repeatCount="indefinite" />
      </rect> -->
  </svg>
