<?xml version="1.0" encoding="UTF-8" standalone="no"?>
<!DOCTYPE svg PUBLIC "-//W3C//DTD SVG 1.1//EN" "http://www.w3.org/Graphics/SVG/1.1/DTD/svg11.dtd">
<svg width="100%" height="100%" viewBox="0 0 9934 14044" version="1.1" xmlns="http://www.w3.org/2000/svg" xmlns:xlink="http://www.w3.org/1999/xlink" xml:space="preserve" xmlns:serif="http://www.serif.com/" style="fill-rule:evenodd;clip-rule:evenodd;stroke-linejoin:round;stroke-miterlimit:2;">
    <g transform="matrix(-1,0,0,1,8986.85,743.936)">
        <path d="M2672.4,3209.29C2411.81,3085.67 2226.92,2776.37 2226.92,2414.76C2226.92,1944.52 2539.58,1562.74 2924.69,1562.74C3309.8,1562.74 3622.46,1944.52 3622.46,2414.76C3622.46,2737.48 3475.2,3018.54 3258.36,3163.09C3165.01,3241.97 3086.28,3322.35 3086.28,3540.12C3086.28,3921.85 3491.47,4464.7 3781.85,4804.72L4050.68,5094.59L4049.41,5095.13L4050.68,5095.16L4050.68,9698.63C4050.68,9698.63 3936.46,10236.7 3723.25,7930.36C3562.17,6187.93 3535.82,5451.67 3532.57,5195.76L3525.29,5060.65C3401.85,4391.16 2549.33,4093.85 2770.45,3872.74C2867.76,3775.42 2881.89,3639.19 2866.17,3515.08C2822.52,3326.81 2716.29,3238.62 2672.4,3209.29ZM2924.43,1802.08C3211.41,1802.08 3444.41,2086.58 3444.41,2437.01C3444.41,2787.44 3211.41,3071.94 2924.43,3071.94C2637.44,3071.94 2404.44,2787.44 2404.44,2437.01C2404.44,2086.58 2637.44,1802.08 2924.43,1802.08Z"/>
    </g>
    <g transform="matrix(1,0,0,1,939.112,743.936)">
        <path d="M2672.4,3209.29C2411.81,3085.67 2226.92,2776.37 2226.92,2414.76C2226.92,1944.52 2539.58,1562.74 2924.69,1562.74C3309.8,1562.74 3622.46,1944.52 3622.46,2414.76C3622.46,2737.48 3475.2,3018.54 3258.36,3163.09C3165.01,3241.97 3086.28,3322.35 3086.28,3540.12C3086.28,3921.85 3491.47,4464.7 3781.85,4804.72L4050.68,5094.59L4049.41,5095.13L4050.68,5095.16L4050.68,9698.63C4050.68,9698.63 3936.46,10236.7 3723.25,7930.36C3562.17,6187.93 3535.82,5451.67 3532.57,5195.76L3525.29,5060.65C3401.85,4391.16 2549.33,4093.85 2770.45,3872.74C2867.76,3775.42 2881.89,3639.19 2866.17,3515.08C2822.52,3326.81 2716.29,3238.62 2672.4,3209.29ZM2924.43,1802.08C3211.41,1802.08 3444.41,2086.58 3444.41,2437.01C3444.41,2787.44 3211.41,3071.94 2924.43,3071.94C2637.44,3071.94 2404.44,2787.44 2404.44,2437.01C2404.44,2086.58 2637.44,1802.08 2924.43,1802.08Z"/>
    </g>
</svg>
